<?xml version="1.0" encoding="UTF-8" standalone="no"?>
<!-- Created with Inkscape (http://www.inkscape.org/) -->

<svg
   xmlns:dc="http://purl.org/dc/elements/1.1/"
   xmlns:cc="http://creativecommons.org/ns#"
   xmlns:rdf="http://www.w3.org/1999/02/22-rdf-syntax-ns#"
   xmlns:svg="http://www.w3.org/2000/svg"
   xmlns="http://www.w3.org/2000/svg"
   xmlns:sodipodi="http://sodipodi.sourceforge.net/DTD/sodipodi-0.dtd"
   xmlns:inkscape="http://www.inkscape.org/namespaces/inkscape"
   version="1.1"
   id="svg34"
   width="779"
   height="720"
   viewBox="0 0 779 720"
   sodipodi:docname="f1.svg"
   inkscape:version="0.92.3 (2405546, 2018-03-11)">
  <metadata
     id="metadata40">
    <rdf:RDF>
      <cc:Work
         rdf:about="">
        <dc:format>image/svg+xml</dc:format>
        <dc:type
           rdf:resource="http://purl.org/dc/dcmitype/StillImage" />
        <dc:title></dc:title>
      </cc:Work>
    </rdf:RDF>
  </metadata>
  <defs
     id="defs38" />
  <sodipodi:namedview
     pagecolor="#ffffff"
     bordercolor="#666666"
     borderopacity="1"
     objecttolerance="10"
     gridtolerance="10"
     guidetolerance="10"
     inkscape:pageopacity="0"
     inkscape:pageshadow="2"
     inkscape:window-width="1920"
     inkscape:window-height="1121"
     id="namedview36"
     showgrid="false"
     inkscape:zoom="0.92709556"
     inkscape:cx="536.89051"
     inkscape:cy="352.07251"
     inkscape:window-x="-9"
     inkscape:window-y="-9"
     inkscape:window-maximized="1"
     inkscape:current-layer="svg34" />
  <path
     style="fill:#000000"
     d="m 104.60594,717.83677 c -11.99683,-3.9433 -19,-13.6018 -19,-26.204 0,-5.9109 0.36921,-7.1922 3.25,-11.2793 1.7875,-2.5359 3.25,-5.4519 3.25,-6.48 0,-1.0281 -1.3924,-4.5024 -3.09423,-7.7207 l -3.09422,-5.8516 0.66048,-19.5 c 0.60386,-17.8284 0.4814,-20.1858 -1.42866,-27.5 -4.29649,-16.4526 -11.699492,-28.3527 -29.561772,-47.5197 -11.76961,-12.6293 -16.4816,-19.9351 -16.4816,-25.5542 0,-4.3756 1.50532,-5.2875 10.61077,-6.4282 9.93473,-1.2445 26.719602,-5.977 39.023782,-11.0025 11.14979,-4.5541 16.29214,-7.4962 22.17981,-12.6897 l 4.31436,-3.8057 -9.25209,-19.25 c -5.08865,-10.5875 -9.50511,-19.2412 -9.81436,-19.2305 -0.30925,0.011 -3.23197,3.1708 -6.49494,7.0224 -3.26298,3.8517 -6.41298,6.839 -7,6.6386 -1.35429,-0.4624 -1.29955,-4.1074 0.38569,-25.6805 2.16565,-27.7227 0.26471,-33.3244 -9.107392,-26.8373 -1.4599,1.0105 -3.42992,1.8373 -4.37781,1.8373 -2.54034,0 -1.37344,-5.6202 4.04359,-19.4753 2.468722,-6.3142 4.488592,-12.605 4.488592,-13.9795 0,-2.9368 -2.20538,-4.5603 -10.265602,-7.557 -7.0609,-2.6251 -11.7344,-6.3839 -11.7344,-9.4375 0,-2.5614 3.59838,-8.3331 8.44814,-13.5507 5.083,-5.4685 6.55361,-8.1649 6.5299,-11.9725 -0.0536,-8.6133 -9.75398,-20.7099 -23.28517,-29.037 -4.29398,-2.6426 -7.70405,-5.184 -7.57791,-5.6476 0.12613,-0.4636 4.08937,-2.7177 8.80719,-5.0091 l 8.57785,-4.1661 -5.72976,-0.084 c -7.63361,-0.1117 -13.21948,-2.4567 -15.80069,-6.6331 -2.60813,-4.2201 -4.5004,-4.8013 -12.88904,-3.9589 -6.53296,0.6561 -6.85249,0.5823 -9.66838,-2.2348 -2.95339,-2.9546 -12.41213,-21.0784 -12.41213,-23.7827 0,-1.0711 1.17871,-1.4744 4.30887,-1.4744 2.36988,0 5.11069,-0.5863 6.09068,-1.3029 1.68081,-1.229 1.57209,-1.8384 -1.91776,-10.75 -7.88945,-20.1462 -8.63552,-30.6537 -2.41299,-33.9839 3.57161,-1.9115 4.95329,0.6118 5.90801,10.7895 0.88512,9.4359 2.1614,13.2473 4.43593,13.2473 2.13692,0 3.45326,-2.2598 4.10637,-7.0496 1.0266,-7.5288 1.47191,-8.9504 2.80378,-8.9504 1.72206,0 6.4852,5.2671 10.85192,12 5.92041,9.1285 11.16893,14.2957 22.39586,22.0488 19.639682,13.5628 25.862192,20.8485 27.453872,32.1447 1.07942,7.6606 3.23877,9.9909 8.21039,8.86 7.10334,-1.6157 19.64654,-9.4926 36.92916,-23.1907 17.31027,-13.72 23.07225,-18.8402 56.8471,-50.5162 33.23046,-31.1654 53.09464,-47.4442 66.48881,-54.4879 16.68496,-8.7743 26.48604,-16.7105 40.44818,-32.7517 3.53915,-4.0662 9.16114,-9.40368 12.49332,-11.86108 11.60565,-8.559 42.55641,-22.6231 60.38988,-27.4412 6.71536,-1.8143 11.9572,-2.1677 42.16862,-2.8425 20.18793,-0.4509 40.10038,-1.4354 48,-2.3732 25.4709,-3.0236 44.73099,-5.9867 45.78857,-7.044203 0.76497,-0.765 12.27963,3.965703 24.15027,9.921803 23.44428,11.7633 45.16048,24.5504 68.25926,40.19288 12.7929,8.6634 18.08921,11.3865 19.46664,10.0091 0.31439,-0.3144 0.0203,-3.4059 -0.65354,-6.8701 -1.56071,-8.0236 0.26518,-16.56898 6.13367,-28.70648 6.29725,-13.0244 17.86091,-23.8387 23.27068,-21.7628 2.48002,0.9517 4.91697,15.0385 4.95993,28.6708 0.0344,10.9344 -0.24923,13.14988 -2.26487,17.68878 -1.26735,2.8539 -2.00913,5.6664 -1.64842,6.25 0.93579,1.5142 10.00044,1.3126 13.88063,-0.3087 4.78928,-2.0011 10.14751,-8.8426 13.72012,-17.51828 7.11529,-17.2786 6.87461,-16.8634 8.23145,-14.2015 0.66308,1.3009 1.54311,2.3033 1.95561,2.2275 0.4125,-0.076 1.4237,-0.1378 2.24712,-0.1378 2.25866,0 9.13828,-6.6307 14.11341,-13.6027 9.4898,-13.298803 13.37655,-26.337203 14.14161,-47.439503 0.83014,-22.8972 -2.09078,-37.4857 -10.20278,-50.9578 -4.27664,-7.1024 -5.58919,-11 -3.7044,-11 0.46473,0 3.50223,1.7189 6.75,3.8199 11.28071,7.2973 19.4958,18.7862 25.00881,34.9753 5.60801,16.468 6.79639,30.9137 3.90644,47.4859 -3.55625,20.393103 -11.48897,35.724803 -34.92645,67.502883 -10.88654,14.7607 -16.77716,24.0941 -16.00016,25.3513 1.93243,3.1267 37.63808,-23.1467 51.981,-38.2494 15.49053,-16.31108 26.15419,-38.66928 28.84203,-60.472183 1.83289,-14.8678 3.83512,-17.4804 8.83907,-11.5335 6.70413,7.9674 8.32857,29.912303 3.33992,45.119803 -7.89106,24.0553 -19.57742,38.28438 -70.35173,85.65888 -16.09637,15.0186 -29.28501,27.6102 -29.3081,27.9813 -0.0231,0.3711 4.40125,2.314 9.83186,4.3176 13.29118,4.9037 16.66298,6.9597 17.06501,10.4057 0.40007,3.4293 -1.92853,7.1228 -5.72998,9.0886 -5.19921,2.6886 -12.30178,3.6603 -32.20782,4.4062 -22.7477,0.8523 -23.28627,1.0445 -27.78051,9.9121 -3.48326,6.8728 -6.08438,9.3368 -12.25232,11.6066 -5.9423,2.1868 -15.44832,10.1192 -34.85203,29.0827 -24.22586,23.6763 -36.74185,32.7222 -49.95983,36.1085 -5.22039,1.3374 -7.39599,1.4356 -11.87545,0.536 -7.61475,-1.5292 -12.55155,-4.6992 -24.03042,-15.4303 -14.95739,-13.9829 -21.12822,-15.7194 -24.78241,-6.9737 -3.21204,7.6875 0.1248,15.6572 11.57482,27.645 8.94719,9.3675 10.07329,11.1706 10.07329,16.1289 0,4.5814 -2.44441,9.3415 -9,17.5259 -9.82752,12.2694 -10.66177,15.4218 -8.91052,33.6711 2.10999,21.9875 -0.69861,31.4442 -13.92967,46.9021 -9.06502,10.5907 -16.04742,15.746 -21.46636,15.8493 -3.53723,0.067 -4.14776,-0.248 -4.67425,-2.4145 -0.72051,-2.9649 -4.26531,-4.9729 -8.81465,-4.9933 -5.39978,-0.024 -8.20126,-3.6774 -8.21986,-10.7192 -0.0185,-6.9864 -0.94921,-8.9204 -3.60752,-7.4964 -1.03244,0.5531 -8.82234,8.9047 -17.31087,18.559 l -15.4337,17.5533 -4.0663,-0.4769 c -2.23647,-0.2623 -13.40047,-1.3714 -24.80891,-2.4647 -24.07845,-2.3074 -29.92124,-3.3884 -32.25529,-5.9675 -5.63753,-6.2294 2.34269,-19.6547 15.98309,-26.8888 6.68565,-3.5457 8.20095,-3.0097 22.70342,8.0301 l 7.79353,5.9327 6.5046,-10.0558 c 7.36714,-11.3892 13.2688,-18.1981 18.81325,-21.7051 5.13523,-3.2482 9.15479,-9.9227 12.83429,-21.3114 4.13829,-12.8088 4.92638,-24.0237 2.07605,-29.5433 -2.65304,-5.1376 -10.61672,-12.9025 -12.494,-12.1821 -1.90275,0.7302 -2.46769,3.988 -3.30507,19.0595 -0.38693,6.964 -0.97525,12.6485 -1.30738,12.6321 -0.33214,-0.016 -2.77482,-4.9245 -5.42819,-10.9068 -5.09127,-11.4789 -10.55824,-19.0634 -13.74107,-19.0634 -1.14027,0 -2.92677,1.6114 -4.43462,4 -2.88019,4.5625 -2.67199,4.4795 -6.40122,2.5511 -3.76047,-1.9446 -8.12521,-7.0602 -14.63871,-17.157 -2.97832,-4.6167 -6.06354,-8.3941 -6.85604,-8.3941 -4.07779,0 -8.29666,13.1969 -12.07642,37.7758 -3.16604,20.5879 -4.43226,23.2242 -11.15485,23.2242 -3.70411,0 -7.37276,4.2069 -7.37276,8.4546 0,1.95 -0.35058,3.5454 -0.77906,3.5454 -0.42848,0 -3.13809,-2.5061 -6.02136,-5.5692 -8.53899,-9.0715 -9.57792,-7.6308 -11.22742,15.5692 -0.56701,7.975 -1.4731,20.6628 -2.01352,28.1952 -1.24772,17.3905 -4.42931,36.1935 -7.65716,45.2533 -2.33886,6.5647 -5.28372,11.791 -3.97328,7.0515 0.30414,-1.1 0.84975,-4.5329 1.21246,-7.6287 0.88544,-7.5573 -0.39003,-9.8713 -5.44099,-9.8713 -4.97226,0 -8.47574,2.7994 -10.6594,8.5172 -2.3304,6.1021 -1.45864,19.16 2.00166,29.9828 2.7086,8.4717 3.34554,15.5 1.40469,15.5 -0.63435,0 -3.53242,-2.25 -6.44014,-5 -2.90772,-2.75 -6.18155,-5 -7.27519,-5 -3.69375,0 -5.31474,2.833 -5.09499,8.9045 0.2651,7.3249 0.16161,8.0955 -1.08733,8.0955 -1.58163,0 -3.94897,-6.4291 -3.94897,-10.7245 0,-4.7409 -1.57872,-10.3971 -3.17785,-11.3854 -6.18963,-3.8254 -12.08423,17.7125 -7.15872,26.1568 5.427,9.3041 44.22048,32.5304 86.08199,51.5386 l 19.24542,8.7389 10.9243,33.0878 c 9.97132,30.2014 11.52944,35.6692 11.19555,39.2873 -0.13079,1.4172 -10.81059,9.1497 -16.82085,12.1787 -2.31559,1.167 -5.50424,2.1218 -7.08589,2.1218 -3.61946,0 -10.54519,-5.2961 -16.81321,-12.8569 -6.85137,-8.2646 -8.30999,-12.2702 -9.30038,-25.54 -0.64584,-8.6533 -1.42294,-12.6587 -3.1469,-16.2199 -8.21827,-16.9767 -56.76319,-47.4569 -91.44346,-57.4153 -9.86504,-2.8327 -19.52716,-7.0558 -21.42743,-9.3655 -2.12097,-2.5779 0.50307,-12.2608 9.3696,-34.5744 11.23112,-28.2643 14.01774,-38.7293 11.29152,-42.4046 -1.87922,-2.5334 -4.67248,-1.0067 -8.45075,4.619 -1.5673,2.3337 -3.59611,4.3868 -4.50846,4.5625 -2.46253,0.4743 -4.79914,-4.8954 -5.66777,-13.0249 -0.84926,-7.9481 -2.32215,-9.78 -7.86358,-9.78 -7.53551,0 -9.37759,3.1082 -15.74764,26.5711 -5.23202,19.2712 -6.93732,23.4289 -9.60943,23.4289 -1.55269,0 -1.88606,-0.7524 -1.88606,-4.2566 0,-2.3411 0.4423,-5.7988 0.9829,-7.6838 1.21778,-4.2461 0.7401,-4.7813 -2.65801,-2.9778 -4.08487,2.168 -10.59961,11.1087 -16.82466,23.0898 -3.09437,5.9556 -6.06193,10.8284 -6.59457,10.8284 -0.53264,0 -1.22149,-0.7875 -1.53078,-1.75 -1.74838,-5.4408 -2.77931,-7.2436 -4.44465,-7.7721 -2.09256,-0.6642 -5.3302,0.7695 -8.72517,3.8636 -3.27059,2.9808 -5.1443,1.3776 -7.738,-6.6207 -3.84707,-11.8633 -6.18899,-12.4766 -14.60331,-3.8241 -10.20649,10.4954 -9.52818,14.9568 7.29685,47.9928 17.01744,33.4138 16.14562,29.8101 15.38435,63.5908 l -0.63143,28.0197 2.64582,7 c 1.45521,3.85 2.71216,8.5608 2.79324,10.4685 0.13266,3.1212 -0.29363,3.713 -4.25698,5.9101 -6.0916,3.3769 -16.37107,3.8605 -24.5956,1.157 z m 339.21249,-280.1919 c 12.8966,-4.8052 16.36868,-9.003 16.42057,-19.8529 0.0347,-7.2564 -1.31248,-9.992 -4.91824,-9.9871 -7.89933,0.011 -24.17872,17.8646 -24.20544,26.5463 -0.0182,5.9122 3.33897,6.7826 12.70311,3.2937 z m 19.45877,-61.4987 c 6.93133,-6.2728 -7.53674,-23.345 -19.78401,-23.345 -6.15421,0 -7.21521,1.9115 -4.05459,7.3047 3.59583,6.1358 11.0102,14.1222 14.88257,16.0308 4.20938,2.0747 6.67116,2.0773 8.95603,0.01 z M 20.534508,296.22977 c 2.07019,-2.0702 1.98391,-3.0161 -0.50187,-5.5019 -1.86547,-1.8655 -2.2915,-1.9287 -4.25,-0.6305 -2.78985,1.8492 -3.20462,4.033 -1.15522,6.0824 2.04266,2.0427 3.89869,2.0584 5.90709,0.05 z m 477.340752,-18.6904 c 7.42065,-1.8987 8.28445,-3.1119 9.39194,-13.1906 0.52414,-4.77 2.27728,-12.9749 3.89586,-18.2332 1.61859,-5.2582 2.94288,-10.3894 2.94288,-11.4026 0,-3.0119 -5.61937,-8.5018 -11.12787,-10.8715 -9.51702,-4.0941 -14.20118,-1.3491 -21.2796,12.4699 -2.25089,4.3944 -4.54253,7.9209 -5.09253,7.8367 -0.55,-0.084 -1.57925,-1.8583 -2.28721,-3.9424 -0.70797,-2.0841 -1.75337,-4.3509 -2.32312,-5.0374 -3.26221,-3.9308 -6.8836,5.5492 -6.90068,18.0644 -0.0138,10.0929 -0.89359,15.5947 -2.59846,16.2489 -0.72575,0.2785 -2.68812,-0.4682 -4.36082,-1.6592 -7.36379,-5.2435 -9.14476,0.9927 -3.61118,12.6448 1.95701,4.1209 4.47098,8.7745 5.58661,10.3412 l 2.02842,2.8487 15.23322,-7.3847 c 8.37827,-4.0616 17.60441,-7.9914 20.50254,-8.733 z"
     id="path44-9"
     inkscape:connector-curvature="0" />
</svg>
