<?xml version="1.0" encoding="UTF-8" standalone="no"?>
<svg
   xmlns:dc="http://purl.org/dc/elements/1.1/"
   xmlns:cc="http://creativecommons.org/ns#"
   xmlns:rdf="http://www.w3.org/1999/02/22-rdf-syntax-ns#"
   xmlns:svg="http://www.w3.org/2000/svg"
   xmlns="http://www.w3.org/2000/svg"
   xmlns:sodipodi="http://sodipodi.sourceforge.net/DTD/sodipodi-0.dtd"
   xmlns:inkscape="http://www.inkscape.org/namespaces/inkscape"
   viewBox="0 0 214 236"
   height="236"
   width="214"
   id="svg61"
   version="1.1"
   sodipodi:docname="f2.svg"
   inkscape:version="0.92.3 (2405546, 2018-03-11)">
  <sodipodi:namedview
     pagecolor="#ffffff"
     bordercolor="#666666"
     borderopacity="1"
     objecttolerance="10"
     gridtolerance="10"
     guidetolerance="10"
     inkscape:pageopacity="0"
     inkscape:pageshadow="2"
     inkscape:window-width="1920"
     inkscape:window-height="1017"
     id="namedview6"
     showgrid="false"
     inkscape:zoom="2.8284271"
     inkscape:cx="28.046158"
     inkscape:cy="147.02115"
     inkscape:window-x="-8"
     inkscape:window-y="-8"
     inkscape:window-maximized="1"
     inkscape:current-layer="g812"
     inkscape:snap-midpoints="true" />
  <metadata
     id="metadata67">
    <rdf:RDF>
      <cc:Work
         rdf:about="">
        <dc:format>image/svg+xml</dc:format>
        <dc:type
           rdf:resource="http://purl.org/dc/dcmitype/StillImage" />
        <dc:title></dc:title>
      </cc:Work>
    </rdf:RDF>
  </metadata>
  <defs
     id="defs65" />
  <g
     id="g812"
     transform="matrix(1,0,0,0.999587,-229.1026,-8.7381862)">
    <path
       style="fill:#000000"
       d="m 325.84272,242.24093 c 6.91635,-2.46484 7.01632,-2.74783 6.80234,-19.25452 -0.13547,-10.45079 0.2425,-16.37698 1.29275,-20.2689 0.8163,-3.025 1.51818,-7.3 1.55973,-9.5 0.0897,-4.7515 6.13794,-20.94318 7.39493,-19.79693 0.48066,0.43831 0.57531,0.27504 0.21035,-0.36283 -0.36496,-0.63786 -0.39966,-1.84749 -0.0771,-2.68806 0.48075,-1.25282 2.63524,-1.51606 11.95231,-1.46037 l 11.36585,0.0679 0.67414,3.12013 c 0.37078,1.71606 1.7296,5.21484 3.0196,7.77506 4.7013,9.33046 4.06631,33.00028 -1.13599,42.34506 -2.73888,4.91977 -2.25795,6.5 1.97822,6.5 5.04881,0 9.3181,-1.86128 9.89927,-4.31579 0.28445,-1.20132 0.57045,-8.39409 0.63556,-15.98394 0.0651,-7.58986 0.54873,-14.93165 1.07472,-16.3151 0.52599,-1.38341 0.95634,-3.57353 0.95634,-4.8669 0,-1.29336 0.52457,-2.52642 1.16572,-2.74014 0.88762,-0.29587 0.88762,-1.18631 0,-3.73255 -2.06096,-5.91206 -0.76196,-20.04554 1.84237,-20.04554 0.50275,0 3.46588,-2.07847 6.58474,-4.61882 5.52772,-4.50238 5.76682,-4.59 9.48527,-3.47593 5.26528,1.57752 7.22705,4.5057 11.39131,17.00295 1.98021,5.94274 4.24536,11.65701 5.03368,12.69839 0.78832,1.04137 1.44761,3.10435 1.46511,4.58439 0.0175,1.48004 0.4818,2.9691 1.0318,3.30902 0.55,0.33992 1,1.4348 1,2.43306 0,0.99827 1.08986,3.78421 2.42191,6.19099 1.33204,2.40677 2.82604,6.85095 3.31998,9.87595 1.11886,6.85212 0.70096,20.70501 -0.73885,24.49201 -0.5943,1.56313 -0.69279,3.10439 -0.21885,3.42502 0.47393,0.32063 1.15225,1.37047 1.50737,2.33297 0.89316,2.42078 2.61861,2.19708 7.50827,-0.97344 5.01249,-3.25016 5.23214,-4.97215 2.1515,-16.8666 -1.12676,-4.35048 -2.42377,-13.30996 -2.88223,-19.90996 -0.93089,-13.40118 -1.14251,-14.69551 -2.5691,-15.71377 -0.58527,-0.41775 -1.06329,-7.46823 -1.15259,-17 -0.12862,-13.72684 -0.56614,-20.28623 -1.35313,-20.28623 -0.0873,0 -0.37699,-1.35 -0.64374,-3 -0.26675,-1.65 -1.80245,-6.29076 -3.41266,-10.31281 -1.98913,-4.96849 -3.40035,-11.13086 -4.40215,-19.22282 -1.53644,-12.41035 -3.73786,-18.48583 -8.93722,-24.664926 -1.90198,-2.260371 -2.23124,-3.26671 -1.35539,-4.142556 0.87584,-0.875845 0.84512,-1.156884 -0.12645,-1.156884 -0.70584,0 -1.09718,-0.558482 -0.86965,-1.241071 0.22753,-0.68259 -0.0725,-1.795353 -0.66666,-2.472808 -0.5942,-0.677454 -2.43036,-3.087022 -4.08036,-5.354594 -1.65,-2.267573 -4.35,-5.447832 -6,-7.067242 l -3,-2.944383 -0.89894,5.089883 c -0.59161,3.349707 -1.3178,4.929153 -2.12407,4.619758 -4.45136,-1.708147 -18.27597,-1.743513 -28.92143,-0.07399 l -11.5222,1.807024 -7.29407,-2.287534 c -10.14766,-3.182464 -27.35244,-13.232893 -26.89885,-15.71336 1.6254,-8.888484 1.57644,-9.104154 -3.29756,-14.525213 -2.56565,-2.853621 -5.83956,-7.246717 -7.27536,-9.762436 -3.73234,-6.539581 -8.9722,-12.845526 -11.28337,-13.579066 -1.09128,-0.346359 -1.98415,-1.107393 -1.98415,-1.691186 0,-1.394186 9.40014,-0.174688 12.90638,1.674368 1.42649,0.752277 5.05325,3.877443 8.05946,6.944813 3.00621,3.06737 5.82389,5.577037 6.26151,5.577037 0.81483,0 -6.24472,-9.296321 -10.83927,-14.273614 -5.4725,-5.928381 -14.47923,-8.55244 -22.88808,-6.668316 -6.68904,1.498776 -10.71105,1.316194 -11.74603,-0.533218 -1.69772,-3.033663 -5.58465,-1.68754 -11.50421,3.984151 -3.16237,3.02995 -6.76226,6.476233 -7.99976,7.658406 -1.2375,1.182172 -2.25,2.948221 -2.25,3.924552 0,0.976331 -1.38137,3.997299 -3.0697,6.713262 -1.68834,2.715962 -3.75918,7.960808 -4.60188,11.655212 -1.24449,5.455896 -2.32372,7.543195 -5.74788,11.116847 -2.57463,2.687034 -5.47887,4.652383 -7.46062,5.048734 -4.19863,0.839725 -2.78875,2.183506 3.14408,2.996692 6.14975,0.842915 9.25756,-1.132192 10.80108,-6.864411 1.27088,-4.71966 4.83685,-12.189698 5.50165,-11.5249 0.23496,0.234964 -0.0176,3.935649 -0.5613,8.223744 -1.35485,10.685987 -0.51416,15.37014 3.37241,18.790513 1.71719,1.511209 3.79317,2.748709 4.6133,2.75 0.82013,0.0013 4.82092,-1.642929 8.89065,-3.65382 8.39644,-4.14876 9.31918,-3.98431 12.8267,2.285972 3.72406,6.657376 3.37202,15.920932 -1.0226,26.90847 -4.77413,11.93644 -5.28518,15.73772 -3.22185,23.96502 1.37901,5.49867 1.55666,9.14339 0.97793,20.06394 -0.57303,10.81315 -0.37319,15.06427 1.05346,22.40921 1.60494,8.26292 1.62482,9.43854 0.22477,13.29403 -0.84473,2.32624 -1.82153,9.53092 -2.17066,16.01041 -0.64527,11.9754 -2.23575,17.68322 -8.42054,30.21911 -1.62822,3.30023 -1.72251,4.05698 -0.53899,4.32568 0.78896,0.17913 1.17741,0.74163 0.86322,1.25 -1.04098,1.68433 2.9715,0.93982 8.29677,-1.53944 3.94357,-1.836 5.29256,-3.01558 5.42105,-4.74024 0.0941,-1.2628 0.22332,-2.97154 0.28721,-3.7972 0.0639,-0.82566 0.50548,-2.13112 0.98131,-2.90103 0.47583,-0.76991 1.18626,-5.94437 1.57872,-11.4988 0.39246,-5.55443 1.3894,-11.67397 2.21542,-13.59897 0.82601,-1.925 1.79261,-7.1 2.14799,-11.5 0.62244,-7.70658 5.51618,-29.73121 6.91744,-31.13247 0.37509,-0.3751 6.04325,1.9301 12.5959,5.12265 10.60347,5.16616 11.97943,6.13215 12.50944,8.78223 1.00804,5.0402 0.67227,11.8316 -1.04849,21.20699 -1.32581,7.22349 -1.42398,9.81733 -0.50204,13.26436 1.59917,5.97912 1.42893,16.20302 -0.35395,21.25624 -0.825,2.3383 -1.5,5.3378 -1.5,6.66556 0,1.32777 -0.93314,4.24323 -2.07366,6.47882 -1.14051,2.23558 -1.59051,3.7661 -1,3.40114 0.59052,-0.36495 1.07366,-0.0101 1.07366,0.78847 0,1.11967 2.26334,2.90091 3.33179,2.62212 0.0925,-0.0241 1.92185,-0.66885 4.06519,-1.43269 z M 295.43958,33.408497 c -0.003,-0.655041 -0.6517,-2.428483 -1.4407,-3.940983 -1.62959,-3.123918 -1.05412,-3.513352 1.61812,-1.095012 1.88439,1.705348 2.64237,7.965895 0.82874,6.845012 -0.55,-0.339919 -1.00277,-1.153976 -1.00616,-1.809017 z"
       id="path814"
       inkscape:connector-curvature="0" />
  </g>
</svg>
